# xmcd
#
# Track frame offsets: 
#        150
#        28175
#        44951
#        65865
#        82868
#        99000
#        113063
#        145185
#        168006
#        183457
#        200146
#        214335
#        224869
#        246115
#
# Disc length: 3504 seconds
#
# Revision: 3
# Processed by: cddbd v1.5.1PL0 Copyright (c) Steve Scherf et al.
# Submitted via: ExactAudioCopy v0.90b4
#
DISCID=d80dae0e
DTITLE=Pat Green - Here We Go
DYEAR=1998
DGENRE=Country
TTITLE0=Georges Bar
TTITLE1=John Wayne and Jesus
TTITLE2=Southbound 35
TTITLE3=Me And Billy The Kid
TTITLE4=DanceHall Dreamer
TTITLE5=Down To The River
TTITLE6=I Like Texas
TTITLE7=#2
TTITLE8=Nightmare
TTITLE9=West Texas Holiday
TTITLE10=If I Had A Million
TTITLE11=Band Introductions
TTITLE12=Songs About Texas
TTITLE13=Here We Go
EXTD=YEAR: 1998 ID3G:   2
EXTT0=
EXTT1=
EXTT2=
EXTT3=
EXTT4=
EXTT5=
EXTT6=
EXTT7=
EXTT8=
EXTT9=
EXTT10=
EXTT11=
EXTT12=
EXTT13=
PLAYORDER=
